<svg xmlns="http://www.w3.org/2000/svg">
 <defs>

 <symbol id="figma" viewBox="0 0 14 21">
<path d="M3.50075 21C5.43235 21 7.00003 19.432 7.00003 17.5V14H3.50075C1.56914 14 0.00146484 15.568 0.00146484 17.5C0.00146484 19.432 1.56914 21 3.50075 21Z" />
<path d="M0.00146484 10.5C0.00146484 8.568 1.56914 7 3.50075 7H7.00003V14H3.50075C1.56914 14 0.00146484 12.432 0.00146484 10.5Z"/>
<path d="M0.00244141 3.5C0.00244141 1.568 1.57012 0 3.50172 0H7.00101V7H3.50172C1.57012 7 0.00244141 5.432 0.00244141 3.5Z" />
<path d="M7 0H10.4993C12.4309 0 13.9986 1.568 13.9986 3.5C13.9986 5.432 12.4309 7 10.4993 7H7V0Z"/>
<path d="M13.9986 10.5C13.9986 12.432 12.4309 14 10.4993 14C8.56769 14 7 12.432 7 10.5C7 8.568 8.56769 7 10.4993 7C12.4309 7 13.9986 8.568 13.9986 10.5Z" />
</symbol>

<symbol width="21" height="22" viewBox="0 0 21 22" id="moon">
<path d="M16.2628 16.1162C12.4326 18.3275 7.63635 17.0962 5.54505 13.474C3.45375 9.85174 4.78553 5.08236 8.6157 2.87101C9.08714 2.59882 9.57617 2.38595 10.0876 2.21458C9.88986 3.00709 9.82613 3.89964 9.87341 4.80961C9.97248 6.71611 10.5678 8.85359 11.6602 10.543C12.6182 12.0246 13.9288 13.4244 15.3695 14.3433C16.0267 14.7625 16.7473 15.1026 17.4946 15.2873C17.117 15.5847 16.7007 15.8634 16.2628 16.1162Z" stroke="white" stroke-width="2"/>
</symbol>




 </defs>
</svg>